<?xml version="1.0" encoding="UTF-8" ?>
<!DOCTYPE svg PUBLIC "-//W3C//DTD SVG 1.1//EN" "http://www.w3.org/Graphics/SVG/1.1/DTD/svg11.dtd">
<svg width="602pt" height="642pt" viewBox="0 0 602 642" version="1.1" xmlns="http://www.w3.org/2000/svg">
<g id="#fefefeff">
</g>
<g id="#f83333ff">
<path fill="#f83333" stroke="#f83333" stroke-width="0.09375" opacity="1.00" d=" M 274.68 22.44 C 286.40 20.95 298.25 21.66 310.02 21.64 C 323.52 23.00 337.17 23.78 350.32 27.37 C 371.01 31.30 390.34 39.99 409.35 48.74 C 415.71 52.14 421.47 56.51 427.51 60.42 C 432.11 63.47 436.78 66.45 440.98 70.03 C 452.70 79.93 463.73 90.75 472.99 103.00 C 479.42 112.05 485.99 121.10 490.89 131.10 C 497.65 144.67 503.63 158.72 507.25 173.48 C 509.08 180.92 511.17 188.35 511.95 196.01 C 513.81 210.61 515.26 225.35 514.25 240.07 C 513.10 249.01 512.27 258.06 509.73 266.75 C 507.28 274.97 505.54 283.41 502.45 291.44 C 493.68 316.16 482.81 340.13 470.20 363.12 C 465.48 372.55 459.60 381.33 454.59 390.60 C 444.69 407.24 434.77 423.89 423.94 439.95 C 419.23 446.63 414.62 453.38 410.22 460.27 C 400.42 475.00 389.56 488.98 379.51 503.53 C 372.80 512.80 365.58 521.69 358.98 531.04 C 354.95 536.30 350.64 541.35 346.64 546.65 C 340.57 554.27 335.21 562.43 328.72 569.71 C 321.42 579.04 313.56 587.91 306.19 597.19 C 303.28 600.59 300.73 605.16 296.13 606.36 C 292.38 604.01 289.94 600.20 287.13 596.89 C 264.87 570.64 244.07 543.24 222.84 516.17 C 200.07 484.41 177.11 452.73 156.50 419.49 C 142.82 398.14 129.97 376.25 118.33 353.72 C 105.14 328.59 93.66 302.45 85.79 275.15 C 81.87 261.81 79.20 247.96 79.43 234.01 C 79.43 219.49 79.50 204.83 82.58 190.58 C 85.18 174.42 89.62 158.48 96.65 143.67 C 100.72 133.57 106.26 124.18 111.96 114.93 C 123.76 96.25 139.81 80.75 156.70 66.71 C 182.75 47.66 212.70 33.81 244.29 27.08 C 254.22 24.40 264.54 23.92 274.68 22.44 M 282.48 62.83 C 276.58 63.36 270.62 63.68 264.85 65.13 C 258.25 66.79 251.43 67.75 245.12 70.39 C 238.12 73.29 230.86 75.58 224.14 79.13 C 220.22 81.20 216.29 83.24 212.41 85.39 C 203.14 90.44 195.12 97.37 186.74 103.71 C 173.08 115.04 161.15 128.44 151.25 143.17 C 145.97 151.27 141.91 160.08 137.96 168.89 C 131.20 184.19 126.74 200.58 125.48 217.28 C 121.81 247.80 126.84 279.30 139.76 307.18 C 144.63 319.23 151.67 330.24 159.34 340.68 C 167.48 351.72 177.57 361.13 187.89 370.09 C 201.05 381.46 216.41 390.03 232.51 396.48 C 254.77 405.63 278.98 409.73 303.00 409.35 C 315.06 408.35 327.25 407.44 338.91 403.98 C 352.87 400.87 366.23 395.42 378.87 388.82 C 433.73 360.23 471.19 300.10 470.67 238.00 C 471.86 195.03 455.30 152.20 426.82 120.19 C 421.25 113.75 414.51 108.50 408.45 102.55 C 397.60 93.65 385.71 85.99 373.00 80.01 C 359.10 72.66 343.73 68.84 328.67 64.65 C 313.45 62.03 297.87 62.20 282.48 62.83 Z" />
<path fill="#f83333" stroke="#f83333" stroke-width="0.09375" opacity="1.00" d=" M 284.01 92.68 C 292.20 92.26 300.44 90.80 308.63 92.14 C 316.68 93.35 324.79 94.34 332.72 96.20 C 342.22 98.90 351.69 101.93 360.58 106.30 C 365.30 108.63 370.53 110.34 374.39 114.09 C 373.30 116.86 371.39 119.21 369.30 121.29 C 360.50 129.83 351.86 138.53 343.25 147.25 C 340.14 150.29 337.26 154.08 332.92 155.36 C 327.88 154.70 323.29 152.15 318.22 151.51 C 310.16 150.43 302.20 147.83 293.98 148.55 C 285.11 149.38 276.20 150.74 267.80 153.84 C 265.28 154.37 262.15 156.31 259.88 154.19 C 256.41 150.96 253.95 146.79 250.40 143.63 C 243.74 137.63 237.77 130.92 231.17 124.86 C 228.19 121.92 224.92 118.94 223.46 114.90 C 225.99 111.12 230.25 109.14 234.11 107.02 C 241.19 103.19 248.99 101.03 256.50 98.25 C 265.30 94.87 274.76 93.97 284.01 92.68 Z" />
<path fill="#f83333" stroke="#f83333" stroke-width="0.09375" opacity="1.00" d=" M 394.49 108.57 C 397.56 107.48 400.21 109.74 402.20 111.79 C 407.96 117.71 413.74 123.60 419.74 129.27 C 421.55 131.16 423.87 133.18 423.79 136.05 C 424.18 140.76 419.90 143.97 416.58 146.56 C 414.91 148.06 412.27 147.99 410.96 146.06 C 404.97 139.39 399.05 132.59 392.07 126.90 C 389.57 124.76 386.72 122.91 384.83 120.16 C 383.61 118.45 385.25 116.63 386.29 115.32 C 388.65 112.69 391.20 110.00 394.49 108.57 Z" />
<path fill="#f83333" stroke="#f83333" stroke-width="0.09375" opacity="1.00" d=" M 197.55 109.41 C 201.08 106.98 204.51 110.78 206.97 113.02 C 208.76 115.10 212.24 117.98 209.98 120.90 C 205.52 125.81 199.55 129.13 195.31 134.31 C 190.99 138.45 188.05 144.08 182.86 147.25 C 178.85 146.15 175.71 142.97 173.33 139.69 C 171.57 137.43 172.04 133.99 174.09 132.07 C 178.40 127.71 183.83 124.53 187.64 119.66 C 190.85 116.17 193.53 112.03 197.55 109.41 Z" />
<path fill="#f83333" stroke="#f83333" stroke-width="0.09375" opacity="1.00" d=" M 406.66 168.67 C 410.39 165.03 413.71 160.89 418.10 158.01 C 419.65 159.46 420.88 161.21 421.99 163.02 C 431.14 178.47 436.42 195.93 439.46 213.55 C 441.75 225.89 442.02 238.54 440.06 250.94 C 438.51 259.55 437.74 268.38 434.82 276.68 C 431.93 285.15 428.73 293.55 424.56 301.49 C 422.75 304.87 421.21 308.66 418.05 311.02 C 413.02 308.63 409.66 304.02 405.76 300.23 C 399.73 294.27 393.68 288.31 387.78 282.22 C 384.65 278.97 380.97 276.21 378.36 272.49 C 376.48 269.86 378.14 266.59 378.89 263.86 C 381.60 256.51 383.08 248.78 384.13 241.04 C 385.28 232.38 383.31 223.74 381.77 215.26 C 380.94 210.48 378.92 206.04 377.65 201.38 C 376.64 198.15 379.71 195.75 381.58 193.59 C 390.11 185.44 398.30 176.96 406.66 168.67 Z" />
<path fill="#f83333" stroke="#f83333" stroke-width="0.09375" opacity="1.00" d=" M 173.95 163.06 C 175.04 161.38 176.01 159.31 178.00 158.57 C 182.32 160.88 185.34 164.85 188.79 168.21 C 197.03 176.30 205.02 184.65 213.36 192.64 C 215.22 194.59 217.37 196.49 218.30 199.10 C 217.91 205.78 214.37 211.80 213.42 218.41 C 212.38 225.87 210.89 233.46 211.98 241.00 C 212.81 247.46 213.62 253.99 215.84 260.14 C 216.78 263.03 218.10 265.84 218.46 268.88 C 218.68 271.94 216.17 274.21 214.27 276.27 C 203.98 285.97 193.95 295.98 184.35 306.37 C 182.31 308.10 180.12 310.71 177.18 310.29 C 173.80 307.56 172.22 303.36 170.27 299.60 C 163.73 285.88 158.39 271.37 156.70 256.18 C 154.72 245.67 153.75 234.91 155.33 224.27 C 156.95 202.83 163.13 181.67 173.95 163.06 Z" />
<path fill="#f83333" stroke="#f83333" stroke-width="0.09375" opacity="1.00" d=" M 260.38 315.32 C 262.25 313.69 264.85 314.29 266.99 314.94 C 286.01 322.37 307.70 322.52 326.96 315.85 C 330.09 314.96 334.21 313.13 336.76 316.19 C 346.81 326.15 356.71 336.28 366.88 346.12 C 369.41 348.94 373.67 351.56 373.35 355.79 C 370.33 358.51 366.63 360.28 363.04 362.11 C 348.00 369.45 331.81 374.85 315.08 376.40 C 288.30 379.98 260.64 375.13 236.22 363.74 C 231.56 361.39 226.71 359.20 222.71 355.78 C 222.01 352.76 224.79 350.58 226.55 348.55 C 234.29 341.29 241.45 333.45 249.15 326.14 C 252.95 322.60 256.17 318.41 260.38 315.32 Z" />
<path fill="#f83333" stroke="#f83333" stroke-width="0.09375" opacity="1.00" d=" M 179.80 322.81 C 182.15 321.42 184.83 322.69 186.39 324.63 C 191.77 330.56 196.57 337.09 202.92 342.07 C 205.44 344.23 208.38 345.99 210.43 348.66 C 211.59 351.88 208.58 354.50 206.63 356.64 C 204.58 358.47 202.32 361.12 199.27 360.62 C 197.22 359.94 195.72 358.26 194.18 356.83 C 188.11 350.56 181.90 344.43 175.65 338.34 C 173.64 336.31 171.26 333.61 172.47 330.54 C 174.09 327.34 176.77 324.68 179.80 322.81 Z" />
<path fill="#f83333" stroke="#f83333" stroke-width="0.09375" opacity="1.00" d=" M 412.46 322.41 C 416.26 321.58 419.24 324.91 421.65 327.34 C 423.82 329.38 424.30 332.66 423.34 335.40 C 421.95 337.88 419.68 339.71 417.70 341.70 C 411.71 347.38 406.80 354.22 400.00 359.01 C 398.31 360.16 395.89 361.51 393.98 360.03 C 390.65 357.78 387.63 354.88 385.59 351.40 C 384.32 349.19 386.58 347.34 388.08 346.06 C 394.50 340.89 400.77 335.43 406.02 329.04 C 408.08 326.78 409.71 323.90 412.46 322.41 Z" />
</g>
</svg>
